<svg width="50" height="48" viewBox="0 0 50 48" fill="none" xmlns="http://www.w3.org/2000/svg">
<path d="M17.3648 7.63428H15.8039C15.4448 7.63428 15.1509 7.92815 15.1509 8.28734C15.1509 8.64652 15.4448 8.9404 15.8039 8.9404H17.3648C17.7239 8.9404 18.0178 8.64652 18.0178 8.28734C18.0178 7.92815 17.7305 7.63428 17.3648 7.63428Z" fill="#0157A3"/>
<path d="M22.9876 7.63428H21.4267C21.0676 7.63428 20.7737 7.92815 20.7737 8.28734C20.7737 8.64652 21.0676 8.9404 21.4267 8.9404H22.9876C23.3467 8.9404 23.6406 8.64652 23.6406 8.28734C23.6406 7.92815 23.3467 7.63428 22.9876 7.63428Z" fill="#0157A3"/>
<path d="M28.6104 7.63428H27.0495C26.6904 7.63428 26.3965 7.92815 26.3965 8.28734C26.3965 8.64652 26.6904 8.9404 27.0495 8.9404H28.6104C28.9695 8.9404 29.2634 8.64652 29.2634 8.28734C29.2634 7.92815 28.9695 7.63428 28.6104 7.63428Z" fill="#0157A3"/>
<path d="M34.2334 7.63428H32.6726C32.3134 7.63428 32.0195 7.92815 32.0195 8.28734C32.0195 8.64652 32.3134 8.9404 32.6726 8.9404H34.2334C34.5926 8.9404 34.8865 8.64652 34.8865 8.28734C34.8865 7.92815 34.5926 7.63428 34.2334 7.63428Z" fill="#0157A3"/>
<path d="M17.3648 11.2915H15.8039C15.4448 11.2915 15.1509 11.5854 15.1509 11.9446C15.1509 12.3037 15.4448 12.5976 15.8039 12.5976H17.3648C17.7239 12.5976 18.0178 12.3037 18.0178 11.9446C18.0178 11.5854 17.7305 11.2915 17.3648 11.2915Z" fill="#0157A3"/>
<path d="M22.9876 11.2915H21.4267C21.0676 11.2915 20.7737 11.5854 20.7737 11.9446C20.7737 12.3037 21.0676 12.5976 21.4267 12.5976H22.9876C23.3467 12.5976 23.6406 12.3037 23.6406 11.9446C23.6406 11.5854 23.3467 11.2915 22.9876 11.2915Z" fill="#0157A3"/>
<path d="M28.6104 11.2915H27.0495C26.6904 11.2915 26.3965 11.5854 26.3965 11.9446C26.3965 12.3037 26.6904 12.5976 27.0495 12.5976H28.6104C28.9695 12.5976 29.2634 12.3037 29.2634 11.9446C29.2634 11.5854 28.9695 11.2915 28.6104 11.2915Z" fill="#0157A3"/>
<path d="M34.2334 11.2915H32.6726C32.3134 11.2915 32.0195 11.5854 32.0195 11.9446C32.0195 12.3037 32.3134 12.5976 32.6726 12.5976H34.2334C34.5926 12.5976 34.8865 12.3037 34.8865 11.9446C34.8865 11.5854 34.5926 11.2915 34.2334 11.2915Z" fill="#0157A3"/>
<path d="M17.3648 14.9424H15.8039C15.4448 14.9424 15.1509 15.2363 15.1509 15.5954C15.1509 15.9546 15.4448 16.2485 15.8039 16.2485H17.3648C17.7239 16.2485 18.0178 15.9546 18.0178 15.5954C18.0178 15.2363 17.7305 14.9424 17.3648 14.9424Z" fill="#0157A3"/>
<path d="M22.9876 14.9424H21.4267C21.0676 14.9424 20.7737 15.2363 20.7737 15.5954C20.7737 15.9546 21.0676 16.2485 21.4267 16.2485H22.9876C23.3467 16.2485 23.6406 15.9546 23.6406 15.5954C23.6406 15.2363 23.3467 14.9424 22.9876 14.9424Z" fill="#0157A3"/>
<path d="M28.6104 14.9424H27.0495C26.6904 14.9424 26.3965 15.2363 26.3965 15.5954C26.3965 15.9546 26.6904 16.2485 27.0495 16.2485H28.6104C28.9695 16.2485 29.2634 15.9546 29.2634 15.5954C29.2634 15.2363 28.9695 14.9424 28.6104 14.9424Z" fill="#0157A3"/>
<path d="M34.2334 14.9424H32.6726C32.3134 14.9424 32.0195 15.2363 32.0195 15.5954C32.0195 15.9546 32.3134 16.2485 32.6726 16.2485H34.2334C34.5926 16.2485 34.8865 15.9546 34.8865 15.5954C34.8865 15.2363 34.5926 14.9424 34.2334 14.9424Z" fill="#0157A3"/>
<path d="M48.8424 18.0375H47.9412C47.0008 15.5167 45.0155 13.538 42.4816 12.6367C42.4163 7.66041 38.3478 3.63755 33.3584 3.63755C32.96 3.63755 32.5812 3.66367 32.2155 3.70939C30.498 1.37796 27.7878 0 24.8816 0C21.982 0 19.2653 1.37796 17.5478 3.70939C17.182 3.66367 16.8033 3.63755 16.4049 3.63755C11.4155 3.63755 7.34694 7.66694 7.28163 12.6367C4.74775 13.5445 2.76245 15.5233 1.82204 18.0375H0.653061C0.293878 18.0375 0 18.3314 0 18.6906V33.3192C0 41.4171 6.58286 48 14.6808 48H34.8082C42.9061 48 49.489 41.4171 49.489 33.3192V18.6906C49.4955 18.3314 49.2016 18.0375 48.8424 18.0375ZM8.13714 13.7273C8.43755 13.6359 8.63347 13.342 8.60082 13.0286C8.58776 12.9371 8.59429 12.8392 8.59429 12.7543C8.59429 8.44408 12.1012 4.93714 16.4114 4.93714C16.8882 4.93714 17.3322 4.97633 17.7371 5.04816C17.9918 5.09388 18.2531 4.98286 18.3967 4.76735C19.8596 2.59265 22.2824 1.29306 24.8882 1.29306C27.4939 1.29306 29.9233 2.59265 31.3796 4.76082C31.5233 4.97633 31.7845 5.09388 32.0392 5.04163C32.4506 4.9698 32.8947 4.93061 33.3649 4.93061C37.6751 4.93061 41.182 8.43755 41.182 12.7478C41.182 12.8392 41.182 12.9437 41.1755 13.0416C41.1494 13.3486 41.3453 13.6359 41.6392 13.7208C43.8465 14.3804 45.6294 15.9608 46.5502 18.031H3.22612C4.14694 15.9673 5.9298 14.3869 8.13714 13.7273ZM48.1894 19.3437V24.9665H1.31265V19.3437H48.1894ZM34.8147 46.7004H14.6873C8.69878 46.7004 3.61143 42.7363 1.91347 37.2963H24.751C25.1102 37.2963 25.4041 37.0024 25.4041 36.6433C25.4041 36.2841 25.1102 35.9902 24.751 35.9902H1.58041C1.40408 35.1282 1.31265 34.2335 1.31265 33.3257V26.2727H48.1894V33.3192C48.1894 40.6988 42.1878 46.7004 34.8147 46.7004Z" fill="#0157A3"/>
</svg>
