<svg width="25" height="24" viewBox="0 0 25 24" fill="none" xmlns="http://www.w3.org/2000/svg">
<path d="M12.7029 17.2081C15.5791 17.2081 17.9107 14.8765 17.9107 12.0004C17.9107 9.12419 15.5791 6.7926 12.7029 6.7926C9.82677 6.7926 7.49518 9.12419 7.49518 12.0004C7.49518 14.8765 9.82677 17.2081 12.7029 17.2081Z" fill="#0157A3"/>
<path d="M12.7029 4.82041C13.0598 4.82041 13.3485 4.53126 13.3485 4.17484V0.645569C13.3485 0.289156 13.0594 0 12.7029 0C12.3465 0 12.0574 0.289156 12.0574 0.645569V4.17484C12.0574 4.53126 12.346 4.82041 12.7029 4.82041Z" fill="#0157A3"/>
<path d="M12.7029 19.1801C12.346 19.1801 12.0574 19.4692 12.0574 19.8256V23.3544C12.0574 23.7108 12.3465 24 12.7029 24C13.0594 24 13.3485 23.7103 13.3485 23.3544V19.8256C13.3485 19.4692 13.0598 19.1801 12.7029 19.1801Z" fill="#0157A3"/>
<path d="M6.71314 6.92369C6.96547 7.17603 7.37393 7.17603 7.62577 6.92369C7.87762 6.67135 7.87811 6.2629 7.62577 6.01106L5.13088 3.51469C4.87854 3.26236 4.4696 3.26236 4.21775 3.51469C3.96591 3.76703 3.96542 4.17597 4.21775 4.42782L6.71314 6.92369Z" fill="#0157A3"/>
<path d="M18.6927 17.0769C18.4404 16.8246 18.0315 16.8246 17.7796 17.0769C17.5278 17.3293 17.5273 17.7382 17.7796 17.9901L20.276 20.4859C20.5278 20.7378 20.9368 20.7383 21.1886 20.4859C21.4405 20.2336 21.4405 19.8247 21.1886 19.5733L18.6927 17.0769Z" fill="#0157A3"/>
<path d="M18.6927 6.9235L21.1886 4.42812C21.4409 4.17578 21.4409 3.76684 21.1886 3.515C20.9362 3.26315 20.5278 3.26266 20.2759 3.515L17.7796 6.01087C17.5272 6.26321 17.5272 6.67166 17.7796 6.9235C18.0319 7.17535 18.4409 7.17535 18.6927 6.9235Z" fill="#0157A3"/>
<path d="M6.71262 17.0769L4.21724 19.5732C3.96539 19.8251 3.9649 20.234 4.21724 20.4859C4.46957 20.7377 4.87852 20.7377 5.12987 20.4859L7.62525 17.99C7.87759 17.7377 7.87759 17.3287 7.62525 17.0769C7.37292 16.825 6.96496 16.8245 6.71262 17.0769Z" fill="#0157A3"/>
<path d="M24.0576 11.3552H20.5283C20.1714 11.3552 19.8827 11.6439 19.8827 12.0003C19.8827 12.3567 20.1719 12.6454 20.5283 12.6454H24.0571C24.414 12.6454 24.7026 12.3567 24.7026 12.0003C24.7026 11.6439 24.414 11.3552 24.0576 11.3552Z" fill="#0157A3"/>
<path d="M5.52311 12.0003C5.52311 11.6434 5.23396 11.3552 4.87754 11.3552H1.34827C0.992345 11.3552 0.702698 11.6439 0.702698 12.0003C0.702698 12.3567 0.992345 12.6454 1.34827 12.6454H4.87754C5.23396 12.6454 5.52311 12.3572 5.52311 12.0003Z" fill="#0157A3"/>
</svg>
