<svg width="39" height="49" viewBox="0 0 39 49" fill="none" xmlns="http://www.w3.org/2000/svg">
<path d="M31.0343 35.2591C25.7046 35.2591 20.2757 29.8301 20.2757 24.5004C20.2757 24.0453 19.9033 23.6729 19.4481 23.6729C18.9929 23.6729 18.6205 24.0453 18.6205 24.5004C18.6205 29.8301 13.1915 35.2591 7.86189 35.2591C7.40672 35.2591 7.0343 35.6315 7.0343 36.0866C7.0343 36.5418 7.40672 36.9142 7.86189 36.9142C13.1915 36.9142 18.6205 42.3432 18.6205 47.6729C18.6205 48.128 18.9929 48.5004 19.4481 48.5004C19.9033 48.5004 20.2757 48.128 20.2757 47.6729C20.2757 42.3432 25.7046 36.9142 31.0343 36.9142C31.4895 36.9142 31.8619 36.5418 31.8619 36.0866C31.8619 35.6315 31.4895 35.2591 31.0343 35.2591ZM27.0619 36.0866C23.735 37.4522 20.8219 40.3735 19.4481 43.7004C18.0826 40.3735 15.1612 37.4604 11.8343 36.0866C15.1612 34.7211 18.0743 31.7997 19.4481 28.4729C20.8136 31.7997 23.735 34.7129 27.0619 36.0866Z" fill="#0157A3"/>
<path d="M15.3104 10.431C18.9269 10.431 22.7586 14.2628 22.7586 17.8793C22.7586 18.3345 23.1311 18.7069 23.5862 18.7069C24.0414 18.7069 24.4138 18.3345 24.4138 17.8793C24.4138 14.2628 28.2455 10.431 31.8621 10.431C32.3173 10.431 32.6897 10.0586 32.6897 9.60345C32.6897 9.14828 32.3173 8.77586 31.8621 8.77586C28.2455 8.77586 24.4138 4.94414 24.4138 1.32759C24.4138 0.872414 24.0414 0.5 23.5862 0.5C23.1311 0.5 22.7586 0.872414 22.7586 1.32759C22.7586 4.94414 18.9269 8.77586 15.3104 8.77586C14.8552 8.77586 14.4828 9.14828 14.4828 9.60345C14.4828 10.0586 14.8552 10.431 15.3104 10.431ZM18.778 9.60345C20.8304 8.61862 22.6014 6.85586 23.5862 4.79517C24.5711 6.84759 26.3338 8.61862 28.3945 9.60345C26.3421 10.5883 24.5711 12.351 23.5862 14.4117C22.6014 12.3593 20.8386 10.5883 18.778 9.60345Z" fill="#0157A3"/>
<path d="M8.68971 27.8108C8.68971 28.2659 9.06212 28.6384 9.5173 28.6384C9.97247 28.6384 10.3449 28.2659 10.3449 27.8108C10.3449 25.3942 12.8938 22.8452 15.3104 22.8452C15.7656 22.8452 16.138 22.4728 16.138 22.0177C16.138 21.5625 15.7656 21.1901 15.3104 21.1901C12.8938 21.1901 10.3449 18.6411 10.3449 16.2246C10.3449 15.7694 9.97247 15.397 9.5173 15.397C9.06212 15.397 8.68971 15.7694 8.68971 16.2246C8.68971 18.6411 6.14074 21.1901 3.72419 21.1901C3.26902 21.1901 2.89661 21.5625 2.89661 22.0177C2.89661 22.4728 3.26902 22.8452 3.72419 22.8452C6.14074 22.8452 8.68971 25.3942 8.68971 27.8108ZM6.67868 22.0177C7.84557 21.3556 8.85523 20.3459 9.5173 19.179C10.1794 20.3459 11.189 21.3556 12.3559 22.0177C11.189 22.6797 10.1794 23.6894 9.5173 24.8563C8.85523 23.6894 7.84557 22.6797 6.67868 22.0177Z" fill="#0157A3"/>
<path d="M33.9311 24.5C31.647 24.5 29.7932 26.3538 29.7932 28.6379C29.7932 30.9221 31.647 32.7759 33.9311 32.7759C36.2153 32.7759 38.0691 30.9221 38.0691 28.6379C38.0691 26.3538 36.2153 24.5 33.9311 24.5ZM33.9311 31.1207C32.5656 31.1207 31.4484 30.0034 31.4484 28.6379C31.4484 27.2724 32.5656 26.1552 33.9311 26.1552C35.2967 26.1552 36.4139 27.2724 36.4139 28.6379C36.4139 30.0034 35.2967 31.1207 33.9311 31.1207Z" fill="#0157A3"/>
<path d="M6.62069 11.2581C6.62069 9.42913 5.13931 7.94775 3.31034 7.94775C1.48138 7.94775 0 9.42913 0 11.2581C0 13.0871 1.48138 14.5684 3.31034 14.5684C5.13931 14.5684 6.62069 13.0871 6.62069 11.2581ZM1.65517 11.2581C1.65517 10.3478 2.4 9.60293 3.31034 9.60293C4.22069 9.60293 4.96552 10.3478 4.96552 11.2581C4.96552 12.1684 4.22069 12.9133 3.31034 12.9133C2.4 12.9133 1.65517 12.1684 1.65517 11.2581Z" fill="#0157A3"/>
<path d="M9.10361 5.46552C10.4691 5.46552 11.5864 4.34828 11.5864 2.98276C11.5864 1.61724 10.4691 0.5 9.10361 0.5C7.73809 0.5 6.62085 1.61724 6.62085 2.98276C6.62085 4.34828 7.73809 5.46552 9.10361 5.46552ZM9.10361 2.15517C9.55878 2.15517 9.93119 2.52759 9.93119 2.98276C9.93119 3.43793 9.55878 3.81034 9.10361 3.81034C8.64844 3.81034 8.27602 3.43793 8.27602 2.98276C8.27602 2.52759 8.64844 2.15517 9.10361 2.15517Z" fill="#0157A3"/>
<path d="M30.6207 17.0522C29.2552 17.0522 28.1379 18.1695 28.1379 19.535C28.1379 20.9005 29.2552 22.0178 30.6207 22.0178C31.9862 22.0178 33.1035 20.9005 33.1035 19.535C33.1035 18.1695 31.9862 17.0522 30.6207 17.0522ZM30.6207 20.3626C30.1655 20.3626 29.7931 19.9902 29.7931 19.535C29.7931 19.0798 30.1655 18.7074 30.6207 18.7074C31.0759 18.7074 31.4483 19.0798 31.4483 19.535C31.4483 19.9902 31.0759 20.3626 30.6207 20.3626Z" fill="#0157A3"/>
</svg>
