<svg width="16" height="17" viewBox="0 0 16 17" fill="none" xmlns="http://www.w3.org/2000/svg">
<path d="M12.3385 4.19107C12.2201 4.19107 12.1066 4.23811 12.0229 4.32183C11.9391 4.40555 11.8921 4.5191 11.8921 4.6375V5.73893H10.5171V2.01786C10.5166 1.61544 10.3566 1.22964 10.072 0.945092C9.78747 0.660541 9.40167 0.500473 8.99926 0.5H7.52747C7.12506 0.500473 6.73926 0.660541 6.45471 0.945092C6.17016 1.22964 6.01009 1.61544 6.00962 2.01786V5.73893H4.63462V4.6375C4.63462 4.5191 4.58758 4.40555 4.50386 4.32183C4.42014 4.23811 4.30659 4.19107 4.18819 4.19107C4.06979 4.19107 3.95624 4.23811 3.87252 4.32183C3.78879 4.40555 3.74176 4.5191 3.74176 4.6375V7.70036C3.74176 7.81876 3.78879 7.93231 3.87252 8.01603C3.95624 8.09975 4.06979 8.14678 4.18819 8.14678C4.30659 8.14678 4.42014 8.09975 4.50386 8.01603C4.58758 7.93231 4.63462 7.81876 4.63462 7.70036V6.63178H6.00962V14.9821C6.01009 15.3846 6.17016 15.7704 6.45471 16.0549C6.73926 16.3395 7.12506 16.4995 7.52747 16.5H8.99926C9.40167 16.4995 9.78747 16.3395 10.072 16.0549C10.3566 15.7704 10.5166 15.3846 10.5171 14.9821V6.63178H11.8921V7.70036C11.8921 7.81876 11.9391 7.93231 12.0229 8.01603C12.1066 8.09975 12.2201 8.14678 12.3385 8.14678C12.4569 8.14678 12.5705 8.09975 12.6542 8.01603C12.7379 7.93231 12.785 7.81876 12.785 7.70036V4.6375C12.785 4.5191 12.7379 4.40555 12.6542 4.32183C12.5705 4.23811 12.4569 4.19107 12.3385 4.19107ZM6.90247 2.01786C6.90247 1.8521 6.96832 1.69313 7.08553 1.57592C7.20274 1.45871 7.36171 1.39286 7.52747 1.39286H8.99926C9.16502 1.39286 9.32399 1.45871 9.4412 1.57592C9.55841 1.69313 9.62426 1.8521 9.62426 2.01786V5.73893H6.90247V2.01786ZM9.62426 14.9821C9.62426 15.1479 9.55841 15.3069 9.4412 15.4241C9.32399 15.5413 9.16502 15.6071 8.99926 15.6071H7.52747C7.36171 15.6071 7.20274 15.5413 7.08553 15.4241C6.96832 15.3069 6.90247 15.1479 6.90247 14.9821V6.63178H9.62426V14.9821Z" fill="#0157A3" fill-opacity="0.6"/>
<path d="M2.63785 7.28947V5.04822L0.696777 6.16893L2.63785 7.28947Z" fill="#0157A3" fill-opacity="0.6"/>
<path d="M13.8889 5.04822V7.28947L15.83 6.16893L13.8889 5.04822Z" fill="#0157A3" fill-opacity="0.6"/>
</svg>
