<svg width="10" height="24" viewBox="0 0 10 24" fill="none" xmlns="http://www.w3.org/2000/svg">
<path fill-rule="evenodd" clip-rule="evenodd" d="M5.51392 9.62715H5.06627C3.10836 9.62715 1.46098 8.15663 1.24071 6.2107L0.595684 0.53551C0.563192 0.250309 0.785819 0 1.07343 0H9.50673C9.79434 0 10.017 0.250303 9.98568 0.53551L9.34065 6.2107C9.11923 8.15656 7.47307 9.62715 5.51392 9.62715ZM5.06627 10.5899H6.25282V21.4744C6.25282 21.8679 6.19265 22.259 6.07472 22.6345L5.7498 23.6634C5.6078 24.1122 4.97243 24.1122 4.83161 23.6634L4.5067 22.6345C4.38756 22.259 4.32739 21.8679 4.32739 21.4744V10.5899H5.06627ZM7.21552 5.29482C8.27931 5.29482 9.14094 4.43319 9.14094 3.36941C9.14094 2.30563 8.27931 1.444 7.21552 1.444H3.3647C2.30092 1.444 1.43929 2.30563 1.43929 3.36941C1.43929 4.43319 2.30092 5.29482 3.3647 5.29482H7.21552ZM8.17823 3.36941C8.17823 3.90131 7.74743 4.33211 7.21552 4.33211H3.3647C2.8328 4.33211 2.402 3.90131 2.402 3.36941C2.402 2.8375 2.8328 2.4067 3.3647 2.4067H7.21552C7.74743 2.4067 8.17823 2.8375 8.17823 3.36941ZM6.01216 7.46083C6.01216 7.0625 5.68964 6.73878 5.29011 6.73878C4.89178 6.73878 4.56807 7.0625 4.56807 7.46083C4.56807 7.85916 4.89178 8.18287 5.29011 8.18287C5.68964 8.18287 6.01216 7.85916 6.01216 7.46083Z" fill="#0157A3"/>
</svg>
