<svg width="32" height="24" viewBox="0 0 32 24" fill="none" xmlns="http://www.w3.org/2000/svg">
<path d="M18.5109 0C16.7744 0 15.1269 0.768356 14.0048 2.0949C13.9476 2.1624 13.8724 2.21219 13.788 2.23841C13.7035 2.26463 13.6133 2.2662 13.528 2.24293C13.0613 2.11441 12.5777 2.04887 12.0935 2.04847C9.60559 2.0546 7.44736 3.74907 6.8524 6.16497C6.83184 6.24919 6.78812 6.32597 6.72618 6.38663C6.66424 6.44729 6.58656 6.4894 6.50193 6.5082C4.99216 6.84666 3.92062 8.18044 3.91514 9.72785V9.7308C3.91597 10.7696 4.39324 11.6905 5.13927 12.2974H10.5879C10.6099 12.2992 10.6317 12.3026 10.6532 12.3075C10.6833 12.3011 10.7139 12.2977 10.7447 12.2974C10.8675 12.2978 10.9851 12.3468 11.0719 12.4336C11.1586 12.5205 11.2074 12.6383 11.2076 12.761V18.3831C11.2076 19.1658 11.7116 19.7103 12.2503 19.7103C12.7891 19.7103 13.2952 19.1659 13.2952 18.3831V14.9799C13.3034 14.8627 13.3558 14.7529 13.4418 14.6727C13.5278 14.5926 13.641 14.548 13.7585 14.548C13.8761 14.548 13.9893 14.5926 14.0753 14.6727C14.1612 14.7529 14.2136 14.8627 14.2218 14.9799C14.2218 15.7623 14.728 16.3071 15.2667 16.3071C15.8055 16.3071 16.3087 15.7627 16.3087 14.9799C16.3087 14.8566 16.3577 14.7383 16.445 14.651C16.5322 14.5638 16.6505 14.5148 16.7739 14.5148C16.8972 14.5148 17.0155 14.5638 17.1027 14.651C17.19 14.7383 17.239 14.8566 17.239 14.9799V16.389C17.239 17.1718 17.7422 17.7169 18.281 17.7169C18.8197 17.7169 19.3259 17.1718 19.3259 16.389V12.7609C19.326 12.638 19.375 12.5202 19.4619 12.4332C19.5488 12.3463 19.6666 12.2974 19.7895 12.2972C19.8034 12.2981 19.8172 12.2995 19.8309 12.3016C19.8408 12.2998 19.8507 12.2984 19.8606 12.2972H26.9174C26.9234 12.2898 26.9297 12.2825 26.9362 12.2755C27.668 11.6678 28.1321 10.7556 28.1321 9.72785C28.1321 7.91716 26.6904 6.45161 24.8791 6.42044C24.7567 6.41871 24.6399 6.36871 24.5542 6.28133C24.4685 6.19394 24.4207 6.07624 24.4213 5.95381V5.91028C24.4213 2.64063 21.78 0.000140418 18.5109 0ZM18.6212 0.956376C18.6662 0.955582 18.7112 0.955786 18.7562 0.956376C19.2963 0.963467 19.8377 1.06735 20.354 1.26985C21.731 1.80984 22.7604 2.98927 23.1107 4.42631C23.1394 4.54561 23.1197 4.67141 23.056 4.77624C22.9922 4.88106 22.8895 4.95639 22.7704 4.98577C22.7111 5.0004 22.6495 5.00321 22.5892 4.99402C22.5288 4.98483 22.4709 4.96383 22.4186 4.93222C22.3664 4.90061 22.3209 4.85901 22.2848 4.80981C22.2486 4.7606 22.2226 4.70475 22.208 4.64545C21.9292 3.50133 21.113 2.56613 20.0167 2.13631C18.9203 1.70638 17.6836 1.83506 16.7012 2.48461C16.5989 2.55232 16.4738 2.57674 16.3535 2.55253C16.2332 2.52833 16.1273 2.45747 16.0591 2.35544C16.0252 2.30467 16.0017 2.24771 15.9898 2.18784C15.978 2.12796 15.9781 2.06634 15.9901 2.0065C16.0021 1.94665 16.0257 1.88976 16.0597 1.83907C16.0937 1.78838 16.1374 1.74489 16.1882 1.71109C16.8051 1.30318 17.5027 1.0574 18.2178 0.981844C18.3519 0.967671 18.4864 0.958759 18.6212 0.956376ZM11.8831 3.2254C12.157 3.22468 12.4347 3.25379 12.7111 3.31537C12.7707 3.32852 12.8271 3.35329 12.8772 3.38827C12.9272 3.42326 12.9699 3.46778 13.0027 3.51927C13.0355 3.57076 13.0579 3.62822 13.0685 3.68836C13.0791 3.7485 13.0777 3.81014 13.0644 3.86975C13.0513 3.92931 13.0265 3.98569 12.9916 4.03569C12.9567 4.08568 12.9122 4.1283 12.8608 4.16112C12.8094 4.19393 12.752 4.2163 12.692 4.22694C12.6319 4.23758 12.5703 4.23628 12.5108 4.22312C11.1727 3.92497 9.81825 4.61913 9.27961 5.87978C9.23107 5.99272 9.13972 6.08181 9.0256 6.12751C8.91148 6.17322 8.78389 6.17181 8.67081 6.12359C8.61463 6.09983 8.56368 6.06523 8.52087 6.02177C8.47806 5.97831 8.44424 5.92684 8.42133 5.8703C8.39842 5.81377 8.38687 5.75327 8.38734 5.69227C8.38782 5.63127 8.40031 5.57096 8.42409 5.51479C9.02493 4.10878 10.4042 3.22933 11.8831 3.2254ZM2.41232 8.60595C1.38166 8.60595 0.567078 9.42138 0.567078 10.4519C0.567078 10.8631 0.698215 11.2387 0.919725 11.5432C0.92466 11.5477 0.929499 11.5523 0.934237 11.557C1.22558 11.9471 1.6646 12.2167 2.17433 12.2819C2.18372 12.2831 2.19319 12.2844 2.20263 12.2855C2.2247 12.2879 2.24706 12.2896 2.26939 12.2913C2.31669 12.2948 2.36402 12.297 2.41233 12.297C2.41331 12.297 2.41426 12.297 2.41524 12.297H3.85565C3.31205 11.5831 2.98853 10.6916 2.98853 9.72767C2.9896 9.33777 3.04672 8.9618 3.15179 8.60585L2.41232 8.60595ZM28.9009 8.60595C29.0049 8.95947 29.0612 9.33536 29.0612 9.72777C29.0612 10.6916 28.7369 11.5834 28.1926 12.2971H29.6374C29.6713 12.2971 29.7049 12.2961 29.7383 12.2942C29.7576 12.2932 29.7771 12.2914 29.7963 12.2898C29.8116 12.2886 29.8269 12.2879 29.842 12.2862C29.8582 12.2844 29.874 12.2817 29.8899 12.2796C29.9133 12.2765 29.9366 12.2736 29.9596 12.2695C29.9666 12.2682 29.9736 12.2671 29.9806 12.2658C30.447 12.1792 30.8466 11.9186 31.1184 11.554C31.1227 11.5496 31.127 11.5452 31.1315 11.5409C31.3521 11.2368 31.4834 10.8621 31.4834 10.4518C31.4834 9.42122 30.6681 8.60584 29.6375 8.60584L28.9009 8.60595ZM1.43641 13.0489L4.45793 22.5328C4.60026 22.979 4.78404 23.3752 4.9978 23.627C5.21154 23.8788 5.41934 24 5.77131 24H26.2808C26.6328 24 26.8404 23.8789 27.0543 23.627C27.2683 23.3752 27.4493 22.9788 27.5913 22.5328L30.6135 13.0489C30.3096 13.1637 29.9809 13.2274 29.6376 13.2274H20.2524V16.389C20.2524 17.5911 19.4124 18.6435 18.2809 18.6435C17.2556 18.6435 16.5517 17.7428 16.4132 16.6858C16.0863 16.9735 15.7269 17.2365 15.2667 17.2365C14.8474 17.2365 14.5334 16.9785 14.2218 16.7351V18.3831C14.2218 19.5852 13.3818 20.6405 12.2504 20.6405C11.1189 20.6405 10.2782 19.5852 10.2782 18.3831V13.2275H2.41532C2.41432 13.2275 2.41341 13.2275 2.41242 13.2275C2.06911 13.2275 1.74009 13.1637 1.43641 13.0489Z" fill="#0157A3"/>
</svg>
