<svg width="21" height="24" viewBox="0 0 21 24" fill="none" xmlns="http://www.w3.org/2000/svg">
<path d="M0.234133 17.0949C0.534096 21.6993 4.15764 24 7.78119 24C10.6878 24 13.5945 22.5152 14.7853 19.5516C14.4044 19.6355 14.0084 19.6835 13.6005 19.6835C10.5768 19.6835 8.11415 17.2238 8.11415 14.1972C8.11415 11.1706 10.4509 8.84889 13.3635 8.72291C11.1198 3.89051 7.78119 0 7.78119 0C7.78119 0 -0.269804 9.36483 0.234133 17.0919V17.0949Z" fill="#0157A3"/>
<path d="M13.6005 19.2366C16.382 19.2366 18.6368 16.9817 18.6368 14.2002C18.6368 11.4187 16.382 9.16382 13.6005 9.16382C10.8189 9.16382 8.56409 11.4187 8.56409 14.2002C8.56409 16.9817 10.8189 19.2366 13.6005 19.2366Z" fill="#0157A3"/>
<path d="M15.9431 5.45334C17.1442 5.45334 18.1179 4.47968 18.1179 3.27861C18.1179 2.07754 17.1442 1.10388 15.9431 1.10388C14.7421 1.10388 13.7684 2.07754 13.7684 3.27861C13.7684 4.47968 14.7421 5.45334 15.9431 5.45334Z" fill="#0157A3"/>
<path d="M19.1557 9.41588C19.9492 9.41588 20.5925 8.77259 20.5925 7.97906C20.5925 7.18552 19.9492 6.54224 19.1557 6.54224C18.3622 6.54224 17.7189 7.18552 17.7189 7.97906C17.7189 8.77259 18.3622 9.41588 19.1557 9.41588Z" fill="#0157A3"/>
</svg>
