<svg width="19" height="17" viewBox="0 0 19 17" fill="none" xmlns="http://www.w3.org/2000/svg">
<path d="M0.882883 0.5C0.70836 0.5 0.566865 0.641495 0.566833 0.816049C0.566833 1.29619 0.566865 15.7038 0.566833 16.184C0.566833 16.3585 0.70836 16.5 0.882883 16.5H10.8977C11.0723 16.5 11.2137 16.3585 11.2138 16.184V0.816049C11.2138 0.641495 11.0723 0.5 10.8977 0.5H0.882883ZM1.19893 1.1321H10.5817V15.8679H1.19893C1.19893 14.8697 1.19896 2.13034 1.19893 1.1321ZM5.75203 1.66543C5.6686 1.66347 5.5887 1.70004 5.52489 1.7642C5.45324 1.83623 5.33046 1.9702 5.17919 2.15926C4.92983 2.47098 4.68047 2.832 4.44833 3.23579C2.94624 5.8486 2.87747 8.80641 5.11004 11.8086C4.79166 12.274 3.83099 13.6743 3.64831 13.942C3.50622 14.1502 3.65302 14.4325 3.90514 14.4358L7.31253 14.4852C7.57618 14.4886 7.72943 14.191 7.56932 13.9815L5.92981 11.8284C5.98831 11.7669 6.02222 11.7372 6.0977 11.6506C6.37557 11.3321 6.65853 10.9642 6.91747 10.5543C8.6443 7.82091 8.693 4.77008 5.97918 1.77406C5.91843 1.70699 5.83547 1.66739 5.75203 1.66543ZM5.73228 2.47531C7.98856 5.14476 7.90882 7.78946 6.37424 10.2185C6.13357 10.5995 5.88111 10.9406 5.62362 11.2358C5.59433 11.2694 5.57242 11.2939 5.54461 11.3247C3.55173 8.57873 3.63248 5.92319 5.00142 3.54198C5.21671 3.16749 5.443 2.84186 5.67302 2.55432C5.69552 2.52619 5.71079 2.50135 5.73228 2.47531ZM5.70264 3.63085C5.66142 3.63088 5.63149 3.65512 5.59401 3.67035C5.58089 3.67671 5.56692 3.66211 5.5545 3.67035L5.52489 3.7C5.51237 3.70923 5.49648 3.70863 5.48538 3.71975L5.45574 3.74937C5.43444 3.77067 5.44035 3.80246 5.42609 3.82838C5.42372 3.83265 5.41841 3.83391 5.41623 3.83827L5.39648 3.86789C5.38716 3.88653 5.39205 3.9072 5.38659 3.92718C5.38377 3.93748 5.3785 3.94623 5.37673 3.95679C5.37654 3.96137 5.36683 3.96207 5.36686 3.96668V4.00619V4.02591C5.36683 4.04936 5.39152 4.06289 5.39648 4.0852C5.4003 4.10277 5.40953 4.11794 5.41623 4.13457C5.43197 4.17357 5.42543 4.22278 5.45574 4.25309L5.48538 4.27284C5.49591 4.2834 5.5132 4.27391 5.52489 4.28273C5.53526 4.28956 5.53333 4.30669 5.54461 4.31235L5.5644 4.32224C5.57972 4.32989 5.59764 4.31718 5.61376 4.32224C5.63709 4.33112 5.65807 4.31898 5.68291 4.32224C5.68623 4.32265 5.68942 4.32189 5.69277 4.32224C5.69771 4.32246 5.69767 4.3321 5.70264 4.3321H5.73228C5.7374 4.3321 5.73708 4.32246 5.74214 4.32224C5.75232 4.32157 5.76164 4.32388 5.77179 4.32224C5.77858 4.32091 5.78481 4.32401 5.79154 4.32224C5.8123 4.31677 5.83105 4.34196 5.8508 4.3321L5.87055 4.32224C5.87327 4.32088 5.8679 4.31377 5.87055 4.31235C5.87491 4.31001 5.87621 4.30498 5.88045 4.30245C5.88209 4.30147 5.88866 4.3035 5.89031 4.30245C5.91796 4.28776 5.94713 4.26538 5.96932 4.24323L5.98907 4.21358C5.99666 4.206 5.98237 4.19215 5.98907 4.18394L6.00882 4.19383L6.02858 4.17407V4.15432L6.03847 4.13457V4.12471L6.05819 4.09506C6.06894 4.06282 6.06808 4.03027 6.06808 3.9963V3.95679C6.06808 3.92993 6.04504 3.91321 6.03847 3.88767C6.03765 3.88454 6.03935 3.88084 6.03847 3.87778C6.03455 3.86735 6.05339 3.85828 6.04833 3.84816L6.03847 3.82838C6.03496 3.82139 6.02267 3.82516 6.01868 3.81852C6.01631 3.81463 6.01138 3.81242 6.00882 3.80866C5.99542 3.7859 5.99817 3.7585 5.97918 3.73951L5.94956 3.70986C5.93901 3.69934 5.92169 3.71865 5.91006 3.70986C5.90481 3.70645 5.9056 3.70313 5.90017 3.7C5.88572 3.69169 5.86641 3.70601 5.8508 3.7C5.82934 3.68948 5.8148 3.67582 5.79154 3.67035C5.77637 3.66814 5.76765 3.6506 5.75203 3.65063C5.74202 3.64965 5.74249 3.63085 5.73228 3.63085H5.70264ZM4.98166 5.03335L4.52734 5.46792C4.60459 5.54781 4.73938 5.66418 4.91251 5.77407C5.49411 6.14322 6.13338 6.21616 6.7298 5.78397C6.82458 5.71526 6.91826 5.64001 7.00634 5.54693L6.54216 5.11236C6.48053 5.17747 6.41694 5.22513 6.35452 5.27039C6.00364 5.52465 5.63367 5.48533 5.24835 5.24074C5.12224 5.16072 5.02683 5.08003 4.98166 5.03335ZM12.4385 6.59381C12.2639 6.59381 12.1224 6.73534 12.1224 6.90986C12.1224 7.19965 12.1224 15.8942 12.1224 16.184C12.1224 16.3585 12.2639 16.5 12.4385 16.5H18.4829C18.6574 16.5 18.7989 16.3585 18.799 16.184V6.90986C18.799 6.73534 18.6574 6.59384 18.4829 6.59381H12.4385ZM12.7545 7.22591H18.1669V15.8679H12.7545C12.7545 15.0824 12.7545 8.01145 12.7545 7.22591ZM15.431 7.90741C15.3493 7.90548 15.2574 7.93468 15.194 7.99631C15.0292 8.15652 14.797 8.44039 14.5619 8.8358C13.6928 10.2974 13.6645 11.9599 14.8977 13.6358C14.6871 13.9354 14.2065 14.6216 14.1076 14.7617C13.9608 14.9696 14.11 15.2524 14.3644 15.2556L16.3101 15.2753C16.5761 15.2787 16.7318 14.9803 16.5668 14.7716L15.7076 13.6753C15.7118 13.6707 15.7132 13.6701 15.7175 13.6654C15.8811 13.484 16.049 13.2765 16.2014 13.0432C17.223 11.4797 17.2513 9.71717 15.6483 8.00617C15.5879 7.94167 15.5128 7.90934 15.431 7.90741ZM15.4014 8.74693C16.5068 10.1149 16.482 11.4518 15.6681 12.6975C15.559 12.8644 15.4388 13.0055 15.3224 13.142C14.3448 11.7338 14.378 10.3845 15.1051 9.16171C15.1983 9.00495 15.3021 8.87547 15.4014 8.74693ZM15.4508 9.44815C15.443 9.44815 15.4388 9.45744 15.431 9.45804C15.4279 9.45804 15.4243 9.45795 15.4212 9.45804C15.4159 9.45817 15.4164 9.46752 15.4113 9.4679C15.408 9.46831 15.4047 9.4674 15.4014 9.4679C15.365 9.47359 15.3257 9.45946 15.2928 9.47776L15.273 9.48765C15.2618 9.49388 15.2635 9.50987 15.2533 9.51727C15.2446 9.52343 15.2415 9.53004 15.2335 9.53705C15.2218 9.54676 15.2043 9.54533 15.194 9.55678L15.1841 9.57656C15.1786 9.58266 15.1792 9.5899 15.1743 9.59628L15.1644 9.61607C15.1626 9.61907 15.1661 9.62286 15.1644 9.62593C15.1568 9.63895 15.1405 9.64163 15.1347 9.65557C15.1284 9.67103 15.1485 9.68866 15.1446 9.70494C15.1439 9.7081 15.1453 9.71164 15.1446 9.7148C15.1439 9.71799 15.1453 9.7215 15.1446 9.72469C15.1418 9.74176 15.115 9.74656 15.115 9.7642V9.78395C15.115 9.7873 15.1149 9.79046 15.115 9.79381C15.1162 9.8287 15.1322 9.85001 15.1446 9.88272C15.1516 9.90238 15.1437 9.92393 15.1545 9.94198L15.1644 9.96173L15.194 9.99134L15.2039 10.0012V10.0111L15.2138 10.021L15.2236 10.0111C15.227 10.0144 15.23 10.0179 15.2335 10.021C15.2471 10.0318 15.2473 10.0517 15.2631 10.0605L15.2829 10.0704C15.3047 10.0825 15.328 10.0933 15.352 10.1C15.3569 10.1016 15.357 10.1085 15.3619 10.1099H15.3718L15.3816 10.1198C15.4051 10.1263 15.4269 10.1088 15.4508 10.1099C15.4575 10.1102 15.4639 10.11 15.4706 10.1099C15.4991 10.1099 15.5317 10.1176 15.5595 10.1099H15.5792C15.587 10.1077 15.5815 10.0929 15.5891 10.0901C15.5984 10.0861 15.6098 10.0951 15.6187 10.0901L15.6483 10.0802C15.6664 10.0702 15.6625 10.044 15.678 10.0308C15.6839 10.0259 15.6823 10.0165 15.6878 10.0111C15.6908 10.0076 15.6949 10.0048 15.6977 10.0012H15.7076C15.7098 9.99883 15.7055 9.99381 15.7076 9.99134C15.7083 9.99046 15.7167 9.99226 15.7175 9.99134C15.727 9.98079 15.7194 9.96347 15.7273 9.95184C15.7314 9.94536 15.7336 9.93888 15.7372 9.93211C15.7444 9.91856 15.7518 9.90711 15.757 9.89261C15.7582 9.88964 15.7559 9.88572 15.757 9.88272C15.7584 9.87823 15.7656 9.87738 15.7668 9.87282C15.7678 9.8697 15.766 9.86612 15.7668 9.86296C15.7728 9.83872 15.8064 9.82927 15.8064 9.8037V9.78395V9.77409C15.8064 9.76922 15.7967 9.769 15.7965 9.7642C15.7965 9.76123 15.7966 9.75728 15.7965 9.75431C15.7942 9.73269 15.7833 9.71562 15.7767 9.69508C15.7747 9.68743 15.7694 9.68275 15.7668 9.67529C15.7532 9.64119 15.7523 9.60434 15.7273 9.57656L15.7175 9.56667C15.7125 9.56117 15.703 9.56193 15.6977 9.55678C15.6964 9.55551 15.6991 9.54818 15.6977 9.54691C15.6925 9.54176 15.6835 9.54183 15.678 9.53705C15.6758 9.53531 15.6703 9.53873 15.6681 9.53705C15.6557 9.52751 15.6622 9.50526 15.6483 9.49755L15.6187 9.48765C15.6121 9.48396 15.6058 9.48099 15.599 9.47776C15.5959 9.47637 15.5921 9.47909 15.5891 9.47776C15.5864 9.47669 15.5919 9.46894 15.5891 9.4679H15.5693C15.5668 9.46714 15.562 9.46863 15.5595 9.4679V9.45804C15.5467 9.4533 15.533 9.46104 15.52 9.45804C15.5027 9.45513 15.4882 9.44815 15.4706 9.44815H15.4508ZM15.1545 10.5839L14.6508 10.9593C14.6967 11.0205 14.7728 11.1079 14.878 11.1864C15.2512 11.465 15.7171 11.5033 16.1817 11.1568L15.8064 10.6531C15.5865 10.8171 15.4182 10.7959 15.2533 10.6728C15.2022 10.6347 15.1669 10.6005 15.1545 10.5839ZM5.515 12.3321L6.67057 13.8432L4.50759 13.8136C4.84431 13.3202 5.22493 12.7571 5.515 12.3321ZM15.2928 14.179L15.6582 14.6334H14.9767C15.1108 14.4433 15.1739 14.3475 15.2928 14.179Z" fill="#0157A3" fill-opacity="0.6"/>
</svg>
