<svg width="12" height="24" viewBox="0 0 12 24" fill="none" xmlns="http://www.w3.org/2000/svg">
<path fill-rule="evenodd" clip-rule="evenodd" d="M2.41141 3.2C2.41141 1.43301 3.84442 0 5.61141 0C7.3784 0 8.81141 1.43301 8.81141 3.2V13.804C10.2604 14.815 11.2114 16.4961 11.2114 18.4C11.2114 21.493 8.7044 24 5.61141 24C2.51842 24 0.0114136 21.493 0.0114136 18.4C0.0114136 16.496 0.962402 14.815 2.41141 13.804V3.2ZM4.81141 16C4.81141 16.045 4.81541 16.09 4.82241 16.133C3.8844 16.459 3.21141 17.351 3.21141 18.4C3.21141 19.725 4.2864 20.8 5.61141 20.8C6.93641 20.8 8.0114 19.725 8.0114 18.4C8.0114 17.351 7.33841 16.459 6.4004 16.133C6.4074 16.09 6.4114 16.045 6.4114 16V11.2C6.4114 10.758 6.05341 10.4 5.6114 10.4C5.16939 10.4 4.8114 10.758 4.8114 11.2L4.81141 16Z" fill="#0157A3"/>
</svg>
