<svg width="26" height="17" viewBox="0 0 26 17" fill="none" xmlns="http://www.w3.org/2000/svg">
<path d="M15.7093 11.1138L12.7795 9.49573L9.84935 11.1138L6.91953 9.49573L3.98935 11.1138L1.2346 9.59251L0.88446 10.2268L1.06026 10.3243L1.05953 10.324L3.98935 11.942H3.98971L6.91953 10.324L9.84935 11.942L12.7795 10.324L15.7093 11.942L18.6392 10.324L18.6384 10.3243L18.8142 10.2268L18.4641 9.59251L15.7093 11.1138Z" fill="#0157A3" fill-opacity="0.6"/>
<path d="M18.4641 13.9421L15.7093 15.4634L12.7795 13.8453L9.84935 15.4634L6.91953 13.8453L3.98935 15.4634L1.2346 13.9421L0.88446 14.5764L1.06026 14.6739L1.05953 14.6736L3.98935 16.2916H3.98971L6.91953 14.6736L9.84935 16.2916L12.7795 14.6736L15.7093 16.2916L18.6392 14.6736L18.6384 14.6739L18.8142 14.5764L18.4641 13.9421Z" fill="#0157A3" fill-opacity="0.6"/>
<path d="M15.7093 6.76417L12.7795 5.14612L9.84935 6.76417L6.91953 5.14612L3.98935 6.76417L1.2346 5.2429L0.88446 5.87757L2.58769 6.81781L3.98935 7.59204H3.98971L6.91953 5.97399L9.84935 7.59204L12.7795 5.97399L15.7093 7.59204L17.111 6.81781L18.8142 5.87757L18.4641 5.2429L15.7093 6.76417Z" fill="#0157A3" fill-opacity="0.6"/>
<path d="M15.7093 2.41456L12.7795 0.796509L9.84935 2.41456L6.91953 0.796509L3.98935 2.41456L1.2346 0.893287L0.88446 1.5276L1.06026 1.62511L1.05953 1.62474L3.98935 3.2428H3.98971L6.91953 1.62474L9.84935 3.2428L12.7795 1.62474L15.7093 3.2428L18.6392 1.62474L18.6384 1.62511L18.8142 1.5276L18.4641 0.893287L15.7093 2.41456Z" fill="#0157A3" fill-opacity="0.6"/>
<path d="M23.7525 15.1125V1.88752L25.1842 3.31927L25.6968 2.80637L23.39 0.5L21.0833 2.80637L21.5958 3.31927L23.0276 1.88752V15.1125L21.5958 13.6807L21.0833 14.1933L23.39 16.5L25.6968 14.1933L25.1842 13.6807L23.7525 15.1125Z" fill="#0157A3" fill-opacity="0.6"/>
</svg>
