<svg width="10" height="17" viewBox="0 0 10 17" fill="none" xmlns="http://www.w3.org/2000/svg">
<path d="M5.17512 0.519543C4.92584 0.452401 4.66156 0.562401 4.53228 0.785962L0.246544 8.21441C0.16369 8.35869 0.14726 8.53084 0.201546 8.68725C0.256545 8.84368 0.375828 8.96868 0.529403 9.03153L4.45583 10.6015V15.9286C4.45583 16.1872 4.6294 16.4136 4.87939 16.4807C4.92868 16.4936 4.97796 16.5 5.02725 16.5C5.22797 16.5 5.41866 16.3936 5.52223 16.2143L9.80797 8.78584C9.89082 8.64156 9.90725 8.46941 9.85297 8.313C9.79797 8.15657 9.67868 8.03157 9.52511 7.96872L5.59868 6.39875V1.07167C5.59868 0.813092 5.42512 0.586687 5.17512 0.519543Z" fill="#0157A3" fill-opacity="0.6"/>
</svg>
