<svg width="25" height="24" viewBox="0 0 25 24" fill="none" xmlns="http://www.w3.org/2000/svg">
<path d="M3.22292 4.80149C3.7372 4.80149 4.15553 4.38312 4.15553 3.86889C4.15553 3.35466 3.73715 2.93628 3.22292 2.93628C2.70869 2.93628 2.29031 3.35466 2.29031 3.86889C2.29031 4.38312 2.70869 4.80149 3.22292 4.80149Z" fill="#0157A3"/>
<path d="M6.58185 6.35351C6.58185 6.86773 7.00023 7.28611 7.51445 7.28611C8.02873 7.28611 8.44706 6.86773 8.44706 6.35351C8.44706 5.83928 8.02868 5.4209 7.51445 5.4209C7.00023 5.4209 6.58185 5.83923 6.58185 6.35351Z" fill="#0157A3"/>
<path d="M10.9024 4.12376C11.4174 4.12376 11.835 3.70622 11.835 3.19115C11.835 2.67609 11.4174 2.25854 10.9024 2.25854C10.3873 2.25854 9.96976 2.67609 9.96976 3.19115C9.96976 3.70622 10.3873 4.12376 10.9024 4.12376Z" fill="#0157A3"/>
<path d="M14.5162 2.54289C14.906 2.54289 15.223 2.22582 15.223 1.83612C15.223 1.44641 14.906 1.12939 14.5162 1.12939C14.1265 1.12939 13.8095 1.44641 13.8095 1.83612C13.8095 2.22582 14.1266 2.54289 14.5162 2.54289Z" fill="#0157A3"/>
<path d="M2.54545 9.09289C2.93516 9.09289 3.25218 8.77587 3.25218 8.38616C3.25218 7.99646 2.93516 7.67944 2.54545 7.67944C2.15575 7.67944 1.83868 7.99646 1.83868 8.38616C1.83868 8.77587 2.15575 9.09289 2.54545 9.09289Z" fill="#0157A3"/>
<path d="M9.9989 10.4481C10.3886 10.4481 10.7057 10.1311 10.7057 9.74139C10.7057 9.35168 10.3886 9.03467 9.9989 9.03467C9.60919 9.03467 9.29218 9.35168 9.29218 9.74139C9.29218 10.1311 9.60924 10.4481 9.9989 10.4481Z" fill="#0157A3"/>
<path d="M7.09181 0.932606C7.09181 0.418377 6.67343 0 6.1592 0C5.64492 0 5.22659 0.418377 5.22659 0.932606C5.22659 1.44684 5.64497 1.86521 6.1592 1.86521C6.67343 1.86521 7.09181 1.44684 7.09181 0.932606Z" fill="#0157A3"/>
<path d="M1.89692 0.706721C1.89692 0.317016 1.57986 0 1.1902 0C0.800544 0 0.483429 0.317016 0.483429 0.706721C0.483429 1.09643 0.800495 1.41349 1.1902 1.41349C1.5799 1.41349 1.89692 1.09643 1.89692 0.706721Z" fill="#0157A3"/>
<path d="M7.38475 14.1843C8.78733 15.4131 10.7771 15.6518 12.3362 14.7783C13.6344 14.0509 14.4551 12.6372 14.4817 11.0857C14.2462 9.79137 13.6791 8.90105 13.034 8.81548C12.794 8.78381 12.5876 8.86864 12.4859 8.9221C11.8074 9.27881 11.7401 10.3795 11.6808 11.3507C11.6234 12.2905 11.5738 13.1021 11.0201 13.3459C10.4304 13.6054 9.71275 12.9876 8.95302 12.3333C8.19082 11.677 7.32702 10.9332 6.69013 11.187C6.39893 11.3031 6.25292 11.5772 6.21515 11.6584C5.91977 12.293 6.38974 13.3081 7.38466 14.1841C7.38466 14.1842 7.38475 14.1843 7.38475 14.1843Z" fill="#0157A3"/>
<path d="M14.8613 11.3881C14.7394 12.9617 13.8653 14.3727 12.5285 15.1216C11.8426 15.506 11.0808 15.6939 10.316 15.6939C9.28963 15.6939 8.25812 15.3546 7.39515 14.6988C7.24732 15.6634 7.16754 16.6408 7.15889 17.6093C7.14261 19.4241 7.37238 21.2427 7.84087 23.0305C8.304 22.5888 8.81784 22.2458 9.37264 22.0095C10.6472 21.4666 11.784 21.6326 12.8834 21.793C13.9205 21.9444 14.9001 22.0873 15.9809 21.6626C17.0001 21.262 17.8831 20.4189 18.6054 19.1566C18.6593 19.0624 18.7794 19.0296 18.8738 19.0836C18.9681 19.1376 19.0008 19.2578 18.9468 19.352C18.483 20.1626 17.9525 20.811 17.362 21.294L19.5784 24H21.6116C21.7652 22.0455 21.6166 18.452 19.1835 15.1224C18.0655 13.5925 16.5754 12.3068 14.8613 11.3881ZM16.2603 18.1263C15.5253 18.2671 14.8152 17.7853 14.6744 17.0502C14.5336 16.3151 15.0154 15.6051 15.7505 15.4643C16.4856 15.3235 17.1957 15.8053 17.3364 16.5404C17.4772 17.2755 16.9954 17.9856 16.2603 18.1263Z" fill="#0157A3"/>
<path d="M16.4836 21.8674L17.7885 24.0001H19.0698L17.0477 21.5312C16.8649 21.6583 16.6769 21.7705 16.4836 21.8674Z" fill="#0157A3"/>
<path d="M22.0189 22.0532C22.0584 22.7073 22.0544 23.3631 22.0061 24.0001H23.0981C23.0114 23.4965 22.7957 22.8518 22.2779 22.2984C22.1968 22.2119 22.1101 22.1302 22.0189 22.0532Z" fill="#0157A3"/>
<path d="M15.821 22.1351L16.0459 24H17.3274L16.1219 22.0298C16.0208 22.0694 15.9206 22.1042 15.821 22.1351Z" fill="#0157A3"/>
<path d="M23.1701 21.499C22.7794 21.0285 22.3205 20.6186 21.8019 20.2767C21.8192 20.3691 21.8354 20.4617 21.8509 20.5548C21.9042 20.8765 21.9463 21.2026 21.9778 21.5305C22.1925 21.6758 22.3904 21.8427 22.5652 22.0295C23.1712 22.677 23.408 23.4301 23.4966 23.9999H24.4329C24.2016 23.0793 23.7678 22.2189 23.1701 21.499Z" fill="#0157A3"/>
<path d="M14.7355 22.3277L14.6818 24H15.6496L15.4367 22.2352C15.1994 22.2855 14.9658 22.3147 14.7355 22.3277Z" fill="#0157A3"/>
<path d="M9.52683 22.3714C8.95447 22.6152 8.42785 22.9834 7.9599 23.4662C8.01065 23.6444 8.06288 23.8225 8.11841 24H14.2882L14.3416 22.3354C13.824 22.3277 13.3212 22.2545 12.8265 22.1822C11.7327 22.0226 10.6996 21.8719 9.52683 22.3714Z" fill="#0157A3"/>
<path d="M20.729 9.05762C20.5553 9.05762 20.3844 9.09834 20.2505 9.18268C19.5318 9.63519 19.6104 11.4593 20.4297 13.7831C21.6211 11.6263 21.9996 9.84017 21.3654 9.27524C21.2051 9.13252 20.9645 9.05762 20.729 9.05762Z" fill="#0157A3"/>
<path d="M18.7582 5.57307C18.6456 5.47279 18.4765 5.42017 18.3111 5.42017C18.1891 5.42017 18.0691 5.44879 17.975 5.508C17.5442 5.77933 17.4321 6.90212 18.0942 8.8202C19.0636 7.03771 19.1383 5.91172 18.7582 5.57307Z" fill="#0157A3"/>
<path d="M1.93982 18.1006C1.89929 18.1006 1.86029 18.1043 1.82287 18.1118C1.49272 18.1778 1.17821 18.5298 1.14983 18.8652C1.09549 19.5087 2.14219 20.4785 4.584 21.2557C3.59931 19.055 2.58388 18.1006 1.93982 18.1006Z" fill="#0157A3"/>
<path d="M3.2824 15.1333C3.26081 15.1333 3.23976 15.1348 3.2193 15.1379C2.98019 15.1738 2.7424 15.4154 2.71043 15.6551C2.64807 16.1233 3.38317 16.8703 5.1451 17.5415C4.47591 15.8676 3.75286 15.1333 3.2824 15.1333Z" fill="#0157A3"/>
</svg>
