<svg width="17" height="17" viewBox="0 0 17 17" fill="none" xmlns="http://www.w3.org/2000/svg">
<path d="M13.2594 5.69877C13.3436 5.78289 13.4613 5.83336 13.5791 5.83336C13.6969 5.83336 13.8146 5.78289 13.8988 5.69877C14.067 5.53053 14.067 5.24451 13.8988 5.05944L11.577 2.77132C11.4088 2.60308 11.1227 2.60308 10.9377 2.77132C10.7694 2.93957 10.7694 3.22558 10.9377 3.41065L13.2594 5.69877Z" fill="#0157A3" fill-opacity="0.6"/>
<path d="M13.2594 9.11412C13.3436 9.19824 13.4613 9.24872 13.5791 9.24872C13.6969 9.24872 13.8146 9.19824 13.8988 9.11412C14.067 8.94588 14.067 8.65986 13.8988 8.47479L8.17847 2.77132C8.01023 2.60308 7.72422 2.60308 7.53915 2.77132C7.3709 2.93957 7.3709 3.22558 7.53915 3.41065L13.2594 9.11412Z" fill="#0157A3" fill-opacity="0.6"/>
<path d="M13.2594 12.5127C13.3436 12.5968 13.4613 12.6472 13.5791 12.6472C13.6969 12.6472 13.8146 12.5968 13.8988 12.5127C14.067 12.3444 14.067 12.0584 13.8988 11.8733L4.77994 2.77132C4.6117 2.60308 4.32569 2.60308 4.14062 2.77132C3.97237 2.93957 3.97237 3.22558 4.14062 3.41065L13.2594 12.5127Z" fill="#0157A3" fill-opacity="0.6"/>
<path d="M11.5433 14.2119C11.6274 14.296 11.7452 14.3465 11.863 14.3465C11.9807 14.3465 12.0985 14.296 12.1826 14.2119C12.3509 14.0436 12.3509 13.7576 12.1826 13.5725L3.06382 4.47054C2.89558 4.3023 2.60956 4.3023 2.42449 4.47054C2.25625 4.63879 2.25625 4.9248 2.42449 5.10987L11.5433 14.2119Z" fill="#0157A3" fill-opacity="0.6"/>
<path d="M8.14479 14.2119C8.22891 14.296 8.34668 14.3465 8.46445 14.3465C8.58222 14.3465 8.69999 14.296 8.78411 14.2119C8.95236 14.0437 8.95236 13.7576 8.78411 13.5726L3.06382 7.8691C2.89558 7.70086 2.60956 7.70086 2.42449 7.8691C2.25625 8.03735 2.25625 8.32336 2.42449 8.50843L8.14479 14.2119Z" fill="#0157A3" fill-opacity="0.6"/>
<path d="M4.74626 14.2118C4.83038 14.296 4.94815 14.3464 5.06592 14.3464C5.18369 14.3464 5.30146 14.296 5.38559 14.2118C5.55383 14.0436 5.55383 13.7576 5.38559 13.5725L3.06382 11.2844C2.89558 11.1161 2.60956 11.1161 2.42449 11.2844C2.25625 11.4526 2.25625 11.7386 2.42449 11.9237L4.74626 14.2118Z" fill="#0157A3" fill-opacity="0.6"/>
<path d="M15.699 0.5H0.624303C0.371937 0.5 0.170044 0.701893 0.170044 0.954259V16.0457C0.170044 16.2981 0.371937 16.5 0.624303 16.5H15.7158C15.9682 16.5 16.17 16.2981 16.17 16.0457V0.954259C16.1532 0.701893 15.9513 0.5 15.699 0.5ZM15.2615 15.5915H1.06174V1.39169H15.2447V15.5915H15.2615Z" fill="#0157A3" fill-opacity="0.6"/>
</svg>
