<svg width="25" height="24" viewBox="0 0 25 24" fill="none" xmlns="http://www.w3.org/2000/svg">
<path d="M14.1822 12.9783H10.8178C10.5771 12.9783 10.382 13.1734 10.382 13.4141V23.5641C10.382 23.8048 10.5771 23.9999 10.8178 23.9999H14.1822C14.4229 23.9999 14.618 23.8048 14.618 23.5641V13.4141C14.618 13.1734 14.4229 12.9783 14.1822 12.9783Z" fill="#0157A3"/>
<path d="M19.2245 6.31921H15.8601C15.6194 6.31921 15.4243 6.51433 15.4243 6.75502V23.5642C15.4243 23.8049 15.6194 24 15.8601 24H19.2245C19.4652 24 19.6603 23.8049 19.6603 23.5642V6.75502C19.6603 6.51433 19.4652 6.31921 19.2245 6.31921Z" fill="#0157A3"/>
<path d="M4.09326 16.4038H0.733172C0.617691 16.4041 0.507036 16.4502 0.425378 16.5318C0.343721 16.6135 0.297698 16.7241 0.297363 16.8396V23.5642C0.297708 23.6796 0.343734 23.7903 0.42539 23.8719C0.507045 23.9536 0.617695 23.9996 0.733172 24H4.09326C4.15055 24.0002 4.20731 23.989 4.26027 23.9672C4.31324 23.9454 4.36136 23.9133 4.40187 23.8728C4.44237 23.8323 4.47447 23.7841 4.4963 23.7312C4.51813 23.6782 4.52927 23.6214 4.52907 23.5642V16.8396C4.52927 16.7823 4.51813 16.7256 4.4963 16.6726C4.47447 16.6196 4.44238 16.5715 4.40187 16.531C4.36136 16.4905 4.31324 16.4584 4.26027 16.4366C4.20731 16.4147 4.15055 16.4036 4.09326 16.4038Z" fill="#0157A3"/>
<path d="M24.2669 9.61817H20.9068C20.8495 9.61797 20.7927 9.6291 20.7398 9.65094C20.6868 9.67277 20.6387 9.70486 20.5982 9.74537C20.5577 9.78588 20.5256 9.834 20.5037 9.88696C20.4819 9.93993 20.4708 9.99669 20.471 10.054V23.5641C20.4708 23.6213 20.4819 23.6781 20.5037 23.7311C20.5256 23.784 20.5577 23.8322 20.5982 23.8727C20.6387 23.9132 20.6868 23.9453 20.7398 23.9671C20.7927 23.9889 20.8495 24.0001 20.9068 23.9999H24.2669C24.3824 23.9995 24.493 23.9535 24.5747 23.8718C24.6563 23.7902 24.7023 23.6795 24.7027 23.5641V10.054C24.7023 9.9385 24.6563 9.82785 24.5747 9.74619C24.493 9.66454 24.3824 9.61851 24.2669 9.61817Z" fill="#0157A3"/>
<path d="M9.13993 11.2351H5.7755C5.53481 11.2351 5.33969 11.4302 5.33969 11.6709V23.5642C5.33969 23.8048 5.53481 24 5.7755 24H9.13993C9.38062 24 9.57574 23.8048 9.57574 23.5642V11.6709C9.57574 11.4302 9.38062 11.2351 9.13993 11.2351Z" fill="#0157A3"/>
<path d="M5.54886 2.60614C5.28082 2.17556 4.96343 1.77773 4.60316 1.42074C4.15813 0.971384 3.73907 0.497037 3.34803 0C2.95698 0.497037 2.53792 0.971384 2.0929 1.42074C1.73262 1.77773 1.41524 2.17556 1.14719 2.60614C0.951728 2.94166 0.830027 3.315 0.790198 3.70126C0.75037 4.08753 0.793329 4.47784 0.916212 4.84619C1.02398 5.18237 1.20327 5.49122 1.44175 5.75151C1.68023 6.01181 1.97225 6.21738 2.29773 6.35409C2.63013 6.4943 2.98725 6.56654 3.34801 6.56654C3.70878 6.56654 4.06589 6.4943 4.3983 6.35409C4.72378 6.21738 5.0158 6.01182 5.25429 5.75152C5.49277 5.49122 5.67207 5.18237 5.77984 4.84619C5.90272 4.47784 5.94568 4.08753 5.90585 3.70126C5.86602 3.315 5.74432 2.94166 5.54886 2.60614Z" fill="#0157A3"/>
<path d="M12.7528 6.15357C12.8757 5.78521 12.9186 5.3949 12.8788 5.00864C12.839 4.62237 12.7173 4.24904 12.5218 3.91351C12.2537 3.48293 11.9364 3.08511 11.5761 2.72811C11.1311 2.27876 10.712 1.80441 10.321 1.30737C9.92991 1.80441 9.51085 2.27876 9.06583 2.72811C8.70555 3.08511 8.38817 3.48293 8.12012 3.91351C7.92466 4.24904 7.80296 4.62237 7.76313 5.00864C7.7233 5.3949 7.76626 5.78521 7.88914 6.15357C7.99691 6.48974 8.1762 6.79859 8.41468 7.05889C8.65316 7.31918 8.94518 7.52475 9.27066 7.66147C9.60306 7.80168 9.96018 7.87391 10.3209 7.87391C10.6817 7.87391 11.0388 7.80168 11.3712 7.66147C11.6967 7.52476 11.9887 7.31919 12.2272 7.05889C12.4657 6.79859 12.645 6.48974 12.7528 6.15357Z" fill="#0157A3"/>
</svg>
