<svg width="16" height="17" viewBox="0 0 16 17" fill="none" xmlns="http://www.w3.org/2000/svg">
<path fill-rule="evenodd" clip-rule="evenodd" d="M0.79895 7.35116L5.06819 3.08192V0.850818L0.79895 5.12006V7.35116ZM11.7865 3.48339V13.0691L12.785 12.0707L13.1359 12.4217L11.7145 13.8431C11.618 13.9396 11.4607 13.9396 11.3635 13.8431L9.94212 12.4217L10.2931 12.0707L11.2915 13.0691L11.2908 3.48339L10.2924 4.48181L9.94142 4.13083L11.3628 2.7094C11.4593 2.61292 11.6166 2.61292 11.7138 2.7094L13.1352 4.13083L12.7843 4.48181L11.7865 3.48339ZM7.23217 0.5H15.8453V0.99571L7.23217 0.996409V0.5ZM15.8453 16.5H7.23217V16.0043H15.8453V16.5ZM5.06819 15.5135L4.08236 16.4993H5.06819V15.5135ZM3.38108 16.5H1.14998L5.06895 12.581V14.8121L3.38108 16.5ZM2.48683 0.5H4.71793L0.798968 4.41896V2.18787L2.48683 0.5ZM0.799022 1.48584V0.5H1.78486L0.799022 1.48584ZM0.799022 16.149V13.9179L5.06827 9.64863V11.8797L0.799022 16.149ZM0.799022 13.2166V10.9855L5.06827 6.71625V8.94735L0.799022 13.2166ZM0.799022 10.2842V8.05312L5.06827 3.78387V6.01497L0.799022 10.2842Z" fill="#0157A3" fill-opacity="0.6"/>
</svg>
