<svg width="70" height="70" viewBox="0 0 70 70" fill="none" xmlns="http://www.w3.org/2000/svg">
<circle cx="35" cy="35" r="34.5" fill="#DCF4FF" stroke="#0157A3"/>
<path d="M31.0815 38.0278C31.0866 38.019 31.0899 38.0097 31.0955 38.0012C31.9965 36.6302 32.5016 35.0361 32.5544 33.3964C32.6072 31.7567 32.2057 30.136 31.3946 28.7147C31.3926 28.7112 31.3917 28.7075 31.3896 28.704L25.8619 26.933C25.7827 28.1684 25.5514 29.3897 25.1733 30.5689C23.3657 36.2108 18.449 40.2394 12.545 40.9787C13.9998 42.6207 15.6704 44.056 17.5112 45.2452C18.8399 46.1103 20.236 46.8664 21.6861 47.5063C21.696 47.4755 21.7057 47.444 21.7164 47.4105C22.4212 45.2119 23.6391 43.2131 25.2683 41.5808C26.8975 39.9485 28.8908 38.7303 31.0815 38.0278Z" fill="url(#paint0_linear_147_744)"/>
<path d="M24.3031 30.29C24.6816 29.1088 24.903 27.883 24.9615 26.6445L8.66095 21.4221C6.89694 27.2724 7.41617 32.8818 10.1707 37.6717C10.6665 38.5312 11.2243 39.353 11.8395 40.1305C11.842 40.1302 11.8442 40.1293 11.8467 40.1291C17.6565 39.6367 22.546 35.7742 24.3031 30.29ZM14.1452 30.062C13.878 29.9707 13.6438 29.8021 13.4721 29.5773C13.3004 29.3525 13.1987 29.0816 13.1799 28.7986C13.161 28.5155 13.2259 28.2329 13.3662 27.9862C13.5066 27.7395 13.7163 27.5397 13.9689 27.4119C14.2215 27.2841 14.5059 27.2339 14.7863 27.2677C15.0667 27.3015 15.3306 27.4177 15.5451 27.6018C15.7595 27.7859 15.9148 28.0296 15.9915 28.3025C16.0683 28.5753 16.063 28.8651 15.9764 29.1355C15.8551 29.5018 15.5941 29.8052 15.2507 29.979C14.9073 30.1528 14.5096 30.1826 14.1452 30.062Z" fill="url(#paint1_linear_147_744)"/>
<path d="M67.0176 29.2379C66.3653 28.3554 65.2214 28.0144 64.6064 27.89C63.7862 32.9902 62.4948 36.1558 61.6835 37.757C63.5254 36.8215 66.7848 34.7822 67.4147 31.8248C67.6396 30.7691 67.506 29.8987 67.0176 29.2379Z" fill="url(#paint2_linear_147_744)"/>
<path d="M32.3418 37.6838C33.8446 37.3444 35.3915 37.2505 36.9226 37.4058C37.4843 35.6285 37.6721 33.7544 37.4742 31.9025C37.4282 31.4619 37.3592 31.0213 37.2711 30.5884L32.6171 29.0973C33.2252 30.4531 33.5164 31.9314 33.4687 33.4195C33.421 34.9076 33.0355 36.3661 32.3418 37.6838Z" fill="#FC94D2"/>
<path d="M38.3838 31.8039C38.5891 33.7286 38.4042 35.6763 37.8403 37.5297C40.4476 37.9658 42.883 39.1145 44.8796 40.85C46.8763 42.5854 48.3572 44.8408 49.1602 47.369C49.3319 47.2962 49.5035 47.2233 49.6746 47.1479C55.0598 44.7769 59.6239 41.272 61.2779 38.2796L38.2611 30.9054C38.3109 31.2037 38.3524 31.5038 38.3838 31.8039Z" fill="url(#paint3_linear_147_744)"/>
<path d="M37.9031 44.0893C36.7809 43.7256 35.5967 43.5922 34.4208 43.6968C33.2448 43.8014 32.101 44.1419 31.0571 44.6983C29.1706 45.6831 27.7169 47.3399 26.9817 49.3429C27.5117 49.4806 28.049 49.608 28.5939 49.7252C33.2524 50.7235 38.3497 50.5607 43.4019 49.2991C42.478 46.8044 40.5005 44.9214 37.9031 44.0893Z" fill="url(#paint4_linear_147_744)"/>
<path d="M39.5682 38.8921C32.4863 36.6232 24.8687 40.5697 22.5876 47.6896C22.5667 47.7547 22.5488 47.8124 22.5321 47.8681C23.6968 48.3439 24.8867 48.7552 26.0966 49.1003C26.9006 46.8513 28.521 44.9884 30.6325 43.8856C31.7839 43.272 33.0456 42.8963 34.3427 42.781C35.6398 42.6656 36.9459 42.8128 38.1838 43.2138C41.0841 44.1431 43.2848 46.2613 44.292 49.0664C45.6542 48.6904 46.9953 48.2405 48.3094 47.7187C47.665 45.6497 46.5346 43.7679 45.0134 42.2319C43.4922 40.6959 41.6248 39.5505 39.5682 38.8921Z" fill="#FC94D2"/>
<defs>
<linearGradient id="paint0_linear_147_744" x1="26.0002" y1="26.9773" x2="19.6337" y2="46.8488" gradientUnits="userSpaceOnUse">
<stop offset="0.479" stop-color="#0157A3"/>
<stop offset="1" stop-color="#3DC1FF"/>
</linearGradient>
<linearGradient id="paint1_linear_147_744" x1="17.0423" y1="24.1073" x2="11.9023" y2="40.1506" gradientUnits="userSpaceOnUse">
<stop offset="0.479" stop-color="#0157A3"/>
<stop offset="1" stop-color="#3DC1FF"/>
</linearGradient>
<linearGradient id="paint2_linear_147_744" x1="66.4739" y1="28.4526" x2="63.3245" y2="38.2828" gradientUnits="userSpaceOnUse">
<stop offset="0.479" stop-color="#0157A3"/>
<stop offset="1" stop-color="#3DC1FF"/>
</linearGradient>
<linearGradient id="paint3_linear_147_744" x1="49.7695" y1="34.5925" x2="46.0005" y2="46.3566" gradientUnits="userSpaceOnUse">
<stop offset="0.479" stop-color="#0157A3"/>
<stop offset="1" stop-color="#3DC1FF"/>
</linearGradient>
<linearGradient id="paint4_linear_147_744" x1="36.9643" y1="43.7884" x2="34.4212" y2="51.7264" gradientUnits="userSpaceOnUse">
<stop offset="0.479" stop-color="#0157A3"/>
<stop offset="1" stop-color="#3DC1FF"/>
</linearGradient>
</defs>
</svg>
