<svg width="62" height="33" viewBox="0 0 62 33" fill="none" xmlns="http://www.w3.org/2000/svg">
<g clip-path="url(#clip0_13_2369)">
<path d="M27.3009 20.5395C27.303 20.5293 27.3034 20.5191 27.3062 20.5089C27.7597 18.879 27.7541 17.1546 27.2901 15.5277C26.826 13.9008 25.9218 12.4354 24.678 11.2948C24.675 11.292 24.6729 11.2887 24.6697 11.2858H18.6839C18.9948 12.524 19.1519 13.7962 19.1516 15.0732C19.1516 21.1827 15.5906 26.6862 10.025 29.2698C11.9704 30.4247 14.0627 31.3086 16.2446 31.8974C17.8217 32.3288 19.4307 32.6321 21.0562 32.8043C21.0562 32.771 21.0558 32.737 21.0558 32.7007C21.0562 30.3198 21.6233 27.9735 22.7097 25.8579C23.7962 23.7422 25.3704 21.9187 27.3009 20.5395Z" fill="url(#paint0_linear_13_2369)"/>
<path d="M18.2092 15.0732C18.2093 13.7941 18.0411 12.5206 17.7089 11.2858H0.0572205C0.165579 17.5864 2.44046 22.9318 6.6527 26.7692C7.41006 27.4573 8.2164 28.0888 9.06528 28.6588C9.0676 28.6578 9.06951 28.6562 9.07191 28.6552C14.6226 26.3436 18.2092 21.0119 18.2092 15.0732ZM8.16168 18.0454C7.87053 18.0397 7.58751 17.9478 7.34813 17.7811C7.10875 17.6144 6.92367 17.3803 6.81611 17.1083C6.70855 16.8362 6.6833 16.5383 6.74353 16.2518C6.80376 15.9654 6.94678 15.7032 7.15466 15.4982C7.36254 15.2932 7.62601 15.1544 7.91202 15.0994C8.19803 15.0443 8.49384 15.0754 8.76235 15.1888C9.03085 15.3021 9.26009 15.4926 9.4213 15.7364C9.5825 15.9802 9.66851 16.2665 9.66851 16.5592C9.66468 16.9572 9.50378 17.3373 9.22121 17.616C8.93863 17.8947 8.55751 18.0491 8.16168 18.0454Z" fill="url(#paint1_linear_13_2369)"/>
<path d="M59.8272 0.600124C58.9089 -0.0613412 57.6783 -0.0363361 57.0351 0.0350114C57.8344 5.30189 57.5621 8.8171 57.2692 10.6449C58.7836 9.14658 61.3431 6.11823 61.0312 3.01569C60.9198 1.90814 60.5147 1.09539 59.8272 0.600124Z" fill="url(#paint2_linear_13_2369)"/>
<path d="M28.4302 19.8051C29.7994 18.9989 31.289 18.42 32.8415 18.0908C32.8339 16.1686 32.4287 14.2689 31.6517 12.5126C31.4679 12.0943 31.2615 11.6833 31.0387 11.2858H25.999C27.0227 12.426 27.7739 13.7862 28.1953 15.2626C28.6166 16.7391 28.697 18.2927 28.4302 19.8051Z" fill="#FC94D2"/>
<path d="M32.5139 12.1295C33.3212 13.9551 33.7524 15.926 33.7817 17.9237C36.4796 17.5316 39.2327 17.8934 41.7396 18.9696C44.2465 20.0457 46.4105 21.7947 47.9946 24.0249C48.1404 23.8994 48.286 23.7738 48.4303 23.646C52.9729 19.623 56.3524 14.7449 57.0353 11.2857H32.1107C32.2535 11.563 32.3886 11.8446 32.5139 12.1295Z" fill="url(#paint3_linear_13_2369)"/>
<path d="M35.9074 24.3459C34.6909 24.3419 33.4859 24.5834 32.3639 25.0562C31.242 25.5289 30.2258 26.2233 29.3757 27.0981C27.8329 28.6588 26.9265 30.7433 26.8347 32.9417C27.3985 32.9102 27.9663 32.8663 28.5383 32.81C33.4275 32.3246 38.3821 30.5609 42.9468 27.7323C41.2545 25.5729 38.7201 24.3459 35.9074 24.3459Z" fill="url(#paint4_linear_13_2369)"/>
<path d="M35.9074 18.7181C28.2385 18.7181 21.9991 24.9906 21.9991 32.7007C21.9991 32.7712 21.9997 32.8335 22.0008 32.8934C23.2943 32.9942 24.5924 33.0238 25.8891 32.982C25.971 30.5203 26.9763 28.181 28.7029 26.4336C29.6407 25.4687 30.7615 24.7028 31.9991 24.1814C33.2366 23.6599 34.5657 23.3935 35.9075 23.3979C39.0483 23.3979 41.876 24.7858 43.7478 27.2237C44.9672 26.4258 46.1428 25.562 47.2691 24.6361C45.9852 22.8069 44.283 21.3146 42.3058 20.2847C40.3286 19.2548 38.1342 18.7175 35.9074 18.7181Z" fill="#FC94D2"/>
</g>
<defs>
<linearGradient id="paint0_linear_13_2369" x1="18.8336" y1="11.2858" x2="18.8336" y2="32.8043" gradientUnits="userSpaceOnUse">
<stop offset="0.479" stop-color="#0157A3"/>
<stop offset="1" stop-color="#3DC1FF"/>
</linearGradient>
<linearGradient id="paint1_linear_13_2369" x1="9.13322" y1="11.2858" x2="9.13322" y2="28.6588" gradientUnits="userSpaceOnUse">
<stop offset="0.479" stop-color="#0157A3"/>
<stop offset="1" stop-color="#3DC1FF"/>
</linearGradient>
<linearGradient id="paint2_linear_13_2369" x1="59.0462" y1="-4.57764e-05" x2="59.0462" y2="10.6449" gradientUnits="userSpaceOnUse">
<stop offset="0.479" stop-color="#0157A3"/>
<stop offset="1" stop-color="#3DC1FF"/>
</linearGradient>
<linearGradient id="paint3_linear_13_2369" x1="44.573" y1="11.2857" x2="44.573" y2="24.0249" gradientUnits="userSpaceOnUse">
<stop offset="0.479" stop-color="#0157A3"/>
<stop offset="1" stop-color="#3DC1FF"/>
</linearGradient>
<linearGradient id="paint4_linear_13_2369" x1="34.8908" y1="24.3459" x2="34.8908" y2="32.9417" gradientUnits="userSpaceOnUse">
<stop offset="0.479" stop-color="#0157A3"/>
<stop offset="1" stop-color="#3DC1FF"/>
</linearGradient>
<clipPath id="clip0_13_2369">
<rect width="61" height="33" fill="white" transform="translate(0.0572205)"/>
</clipPath>
</defs>
</svg>
